<svg width="326" height="205" viewBox="0 0 326 205" fill="none" xmlns="http://www.w3.org/2000/svg">
<g clip-path="url(#clip0_8507_22672)">
<path d="M52.7792 23.784C50.162 23.7871 47.6529 24.8951 45.8023 26.8647C43.9516 28.8343 42.9107 31.5048 42.9077 34.2903V148.512C42.9107 151.297 43.9516 153.968 45.8023 155.937C47.6529 157.907 50.162 159.015 52.7792 159.018H275.225C277.842 159.015 280.351 157.907 282.202 155.937C284.053 153.968 285.094 151.297 285.097 148.512V34.2903C285.094 31.5048 284.053 28.8343 282.202 26.8647C280.351 24.8951 277.842 23.7871 275.225 23.784H52.7792Z" fill="#FAFEFF"/>
<path d="M275.225 159.428H52.779C50.0597 159.425 47.4527 158.274 45.5299 156.227C43.6071 154.181 42.5255 151.406 42.5225 148.512V34.2903C42.5255 31.3962 43.6071 28.6216 45.5299 26.5751C47.4527 24.5286 50.0597 23.3775 52.779 23.3742H275.225C277.944 23.3775 280.551 24.5286 282.474 26.5751C284.397 28.6216 285.478 31.3962 285.481 34.2903V148.512C285.478 151.406 284.397 154.181 282.474 156.227C280.551 158.273 277.944 159.425 275.225 159.428ZM52.779 24.1938C50.2639 24.1968 47.8526 25.2615 46.0742 27.1543C44.2957 29.0472 43.2954 31.6135 43.2925 34.2904V148.512C43.2954 151.189 44.2957 153.755 46.0742 155.648C47.8526 157.541 50.2639 158.605 52.779 158.608H275.225C277.74 158.605 280.151 157.541 281.93 155.648C283.708 153.755 284.708 151.189 284.711 148.512V34.2903C284.708 31.6135 283.708 29.0472 281.93 27.1543C280.151 25.2615 277.74 24.1968 275.225 24.1938H52.779Z" fill="#4E6879"/>
<path d="M116.964 153.03C116.981 152.571 115.661 152.143 114.015 152.074C112.369 152.004 111.021 152.32 111.004 152.778C110.987 153.237 112.308 153.665 113.953 153.734C115.599 153.804 116.947 153.489 116.964 153.03Z" fill="#EBF0F2"/>
<path d="M135.947 151.96C135.965 151.501 134.644 151.073 132.999 151.004C131.353 150.934 130.005 151.249 129.988 151.708C129.971 152.167 131.291 152.595 132.937 152.664C134.582 152.734 135.93 152.418 135.947 151.96Z" fill="#28363E"/>
<path d="M109.67 146.796C109.687 146.337 108.367 145.909 106.721 145.839C105.075 145.77 103.727 146.085 103.71 146.544C103.693 147.003 105.014 147.431 106.659 147.5C108.305 147.57 109.653 147.254 109.67 146.796Z" fill="#D62B25"/>
<path d="M100.501 144.518C100.545 144.109 99.9906 143.705 99.2626 143.617C98.5346 143.528 97.9089 143.789 97.865 144.198C97.8212 144.608 98.3758 145.011 99.1038 145.1C99.8318 145.188 100.458 144.927 100.501 144.518Z" fill="#EBF0F2"/>
<path d="M96.1203 139.743C96.1641 139.333 95.6095 138.93 94.8815 138.841C94.1535 138.753 93.5278 139.013 93.4839 139.423C93.4401 139.832 93.9947 140.236 94.7227 140.324C95.4507 140.412 96.0764 140.152 96.1203 139.743Z" fill="#28363E"/>
<path d="M120.879 147.874C120.922 147.464 120.368 147.061 119.64 146.972C118.912 146.884 118.286 147.145 118.242 147.554C118.198 147.963 118.753 148.367 119.481 148.455C120.209 148.544 120.835 148.283 120.879 147.874Z" fill="#EBF0F2"/>
<path d="M112.191 149.906C112.234 149.496 111.68 149.093 110.952 149.004C110.224 148.916 109.598 149.177 109.554 149.586C109.51 149.995 110.065 150.399 110.793 150.487C111.521 150.576 112.147 150.315 112.191 149.906Z" fill="#D62B25"/>
<path d="M126.243 153.179C126.287 152.77 125.733 152.366 125.005 152.278C124.277 152.189 123.651 152.45 123.607 152.859C123.563 153.269 124.118 153.672 124.846 153.761C125.574 153.849 126.199 153.589 126.243 153.179Z" fill="#28363E"/>
<path d="M2.028e-06 136.234C-0.000177426 136.298 0.0115546 136.361 0.0345189 136.421C0.0574832 136.48 0.0912303 136.534 0.133816 136.579C0.176401 136.624 0.226984 136.66 0.282658 136.685C0.338333 136.709 0.397998 136.722 0.458221 136.722H325.542C325.663 136.722 325.78 136.67 325.866 136.579C325.952 136.487 326 136.363 326 136.234C326 136.105 325.952 135.981 325.866 135.889C325.78 135.798 325.663 135.746 325.542 135.746H0.458198C0.397977 135.746 0.338318 135.759 0.282647 135.783C0.226976 135.807 0.176393 135.843 0.13381 135.889C0.0912273 135.934 0.0574825 135.988 0.0345189 136.047C0.0115553 136.106 -0.000175367 136.17 2.028e-06 136.234Z" fill="#9FB4C1"/>
<path d="M111.117 127.618C110.896 127.629 110.677 127.567 110.49 127.441C110.302 127.315 110.156 127.13 110.07 126.913C109.985 126.695 109.964 126.455 110.012 126.224C110.059 125.994 110.171 125.784 110.334 125.624L110.408 125.311C110.398 125.286 110.389 125.261 110.379 125.235C110.156 124.675 109.782 124.197 109.304 123.861C108.827 123.526 108.267 123.348 107.695 123.35C107.123 123.353 106.564 123.535 106.089 123.874C105.614 124.213 105.243 124.694 105.024 125.257C104.148 127.502 103.033 129.75 102.759 132.124C102.638 133.173 102.689 134.237 102.909 135.267C100.852 130.492 99.7844 125.301 99.7775 120.048C99.7771 118.73 99.8459 117.412 99.9836 116.102C100.097 115.028 100.255 113.962 100.457 112.903C101.56 107.159 103.927 101.774 107.364 97.1925C109.028 96.2264 110.373 94.7407 111.219 92.9357C111.526 92.2869 111.742 91.5943 111.862 90.8794C111.675 90.9056 111.155 87.8636 111.296 87.677C111.035 87.2546 110.567 87.0446 110.281 86.6325C108.86 84.5826 106.903 84.9405 105.881 87.7261C103.699 88.8986 103.678 90.843 105.017 92.713C105.869 93.9028 105.986 95.5127 106.734 96.7864C106.657 96.8912 106.577 96.9927 106.5 97.0975C105.094 99.0217 103.868 101.088 102.841 103.267C103.091 100.826 102.793 98.3569 101.971 96.0628C101.138 93.9248 99.5776 92.1241 98.2031 90.2758C96.5521 88.0557 93.1667 89.0246 92.8758 91.8389C92.873 91.8662 92.8702 91.8934 92.8676 91.9206C93.0717 92.0432 93.2716 92.1733 93.4671 92.311C93.7127 92.4856 93.9031 92.7352 94.0132 93.027C94.1233 93.3187 94.148 93.6391 94.0841 93.9461C94.0202 94.2531 93.8707 94.5323 93.6551 94.7473C93.4395 94.9623 93.1679 95.1029 92.8759 95.1508L92.846 95.1558C92.9188 95.9389 93.0473 96.715 93.2306 97.4773C91.4673 104.735 95.2741 107.378 100.71 107.497C100.83 107.563 100.947 107.628 101.067 107.69C100.035 110.803 99.3871 114.046 99.1407 117.337C99.0012 119.278 99.0094 121.228 99.1653 123.168L99.156 123.1C98.7622 120.942 97.681 118.996 96.0949 117.589C93.7391 115.529 90.4109 114.771 87.8695 113.115C87.5994 112.931 87.2853 112.832 86.9643 112.831C86.6434 112.83 86.3289 112.927 86.0579 113.111C85.787 113.294 85.5709 113.555 85.4352 113.865C85.2995 114.175 85.2498 114.519 85.2919 114.858C85.2953 114.882 85.2988 114.906 85.3023 114.93C85.6812 115.094 86.0501 115.283 86.4068 115.496C86.611 115.619 86.8108 115.749 87.0063 115.887C87.252 116.061 87.4423 116.311 87.5524 116.603C87.6625 116.895 87.6872 117.215 87.6233 117.522C87.5594 117.829 87.4099 118.108 87.1943 118.323C86.9787 118.538 86.7071 118.679 86.4152 118.727L86.3852 118.732C86.3637 118.735 86.3452 118.738 86.3237 118.741C86.9711 120.386 87.8796 121.901 89.0096 123.217C90.1121 129.553 94.8475 130.154 99.9129 128.309H99.916C100.472 130.88 101.277 133.382 102.319 135.775H110.902C110.933 135.673 110.961 135.569 110.988 135.467C110.194 135.52 109.396 135.47 108.613 135.317C109.25 134.485 109.887 133.647 110.524 132.815C110.538 132.799 110.551 132.783 110.564 132.766C110.887 132.34 111.213 131.918 111.536 131.492L111.536 131.491C111.553 130.187 111.413 128.885 111.117 127.618Z" fill="#246670"/>
<path d="M68.2677 122.549C67.9087 122.567 67.5533 122.467 67.2496 122.262C66.946 122.057 66.7088 121.758 66.5701 121.405C66.4315 121.053 66.3981 120.663 66.4746 120.289C66.551 119.915 66.7335 119.576 66.9974 119.316C67.0416 119.129 67.0733 118.995 67.1175 118.808C67.1017 118.767 67.0858 118.727 67.0698 118.686C66.7081 117.777 66.1021 117.002 65.3279 116.458C64.5536 115.914 63.6456 115.626 62.718 115.63C61.7904 115.633 60.8844 115.929 60.114 116.478C59.3435 117.028 58.743 117.808 58.3877 118.72C56.9676 122.36 55.1597 126.006 54.7146 129.855C54.5185 131.556 54.6012 133.281 54.959 134.952C51.6238 127.209 49.8919 118.793 49.8808 110.275C49.8801 108.137 49.9917 106.001 50.215 103.877C50.3996 102.136 50.6557 100.407 50.9832 98.6899C52.7709 89.3755 56.6089 80.6454 62.1822 73.2163C64.8797 71.6498 67.0612 69.2409 68.4327 66.3143C68.9296 65.2622 69.2807 64.1392 69.4753 62.98C69.171 63.0225 68.3279 58.0902 68.5574 57.7876C68.1334 57.1027 67.3744 56.7623 66.9113 56.094C64.6079 52.7703 61.4345 53.3506 59.7778 57.8673C56.2388 59.7683 56.2045 62.921 58.376 65.9532C59.7576 67.8823 59.9474 70.4926 61.1596 72.5579C61.0349 72.7278 60.9052 72.8924 60.7805 73.0623C58.5007 76.1822 56.5138 79.5325 54.8481 83.0649C55.2532 79.1075 54.7697 75.1043 53.4375 71.3846C52.0873 67.9179 49.5566 64.9983 47.328 62.0014C44.6511 58.4016 39.1618 59.9726 38.6902 64.5359C38.6856 64.5801 38.6812 64.6242 38.6768 64.6684C39.0078 64.8671 39.3319 65.0781 39.6489 65.3013C40.0472 65.5845 40.3558 65.9892 40.5343 66.4622C40.7128 66.9353 40.7529 67.4548 40.6493 67.9525C40.5457 68.4502 40.3032 68.9031 39.9537 69.2516C39.6041 69.6002 39.1638 69.8283 38.6904 69.9059L38.6419 69.9139C38.7598 71.1837 38.9683 72.442 39.2654 73.6782C36.4064 85.4458 42.5789 89.7319 51.3923 89.9244C51.5868 90.0306 51.7764 90.1368 51.971 90.2377C50.2975 95.2852 49.2477 100.543 48.8482 105.879C48.622 109.027 48.6354 112.189 48.8881 115.334L48.8731 115.223C48.2346 111.725 46.4814 108.569 43.9096 106.287C40.09 102.948 34.6935 101.718 30.5728 99.0339C28.5891 97.7417 26.0473 99.4115 26.3935 101.859C26.399 101.898 26.4046 101.937 26.4103 101.976C27.0246 102.243 27.6227 102.549 28.2011 102.895C28.5322 103.094 28.8562 103.305 29.1732 103.528C29.5715 103.811 29.8801 104.216 30.0586 104.689C30.2371 105.162 30.2772 105.681 30.1736 106.179C30.07 106.677 29.8275 107.13 29.478 107.478C29.1284 107.827 28.6881 108.055 28.2147 108.132L28.1662 108.14C28.1313 108.146 28.1013 108.151 28.0665 108.156C29.1161 110.824 30.5892 113.279 32.4213 115.414C34.209 125.687 41.8871 126.661 50.1003 123.67H50.1053C51.0064 127.838 52.3121 131.894 54.0012 135.775H67.9189C67.9688 135.61 68.0137 135.44 68.0586 135.276C66.7703 135.362 65.477 135.28 64.2075 135.032C65.2401 133.683 66.2727 132.324 67.3053 130.975C67.3283 130.95 67.35 130.924 67.3702 130.896C67.8939 130.206 68.4227 129.521 68.9465 128.83L68.9468 128.83C68.9747 126.714 68.7466 124.603 68.2681 122.55L68.2677 122.549Z" fill="#246670"/>
<path d="M258.741 7.93696C257.807 0.314764 241.288 0.80099 239.728 7.97223C238.901 7.42146 236.796 7.80269 236.011 8.43576C235.226 9.06883 234.723 9.9995 234.23 10.9029C233.558 12.1577 232.861 13.4574 232.712 14.8962C232.557 16.3322 233.087 17.9589 234.31 18.5983C235.28 19.1078 237.416 18.7637 238.482 18.5356C239.227 18.3781 239.851 18.2402 240.382 18.1049C240.56 17.2124 240.437 16.2816 240.035 15.4759C240.463 15.5665 240.868 15.7569 241.219 16.0334C241.57 16.31 241.86 16.6659 242.066 17.0756C242.15 17.2471 245.176 41.4937 245.176 41.4937C246.004 41.5999 246.838 41.622 247.67 41.56C248.186 38.5759 248.279 35.5266 247.948 32.513C248.825 34.2354 249.518 36.0565 250.015 37.9425C250.3 38.9973 250.535 40.0669 250.717 41.1472C257.92 39.7137 267.656 34.7764 269.432 26.3929C269.423 26.3659 269.413 26.3388 269.403 26.3118C269.306 26.0556 269.295 25.7714 269.374 25.508C269.452 25.2445 269.613 25.0182 269.831 24.8677C270.049 24.7172 270.309 24.652 270.567 24.6831C270.825 24.7143 271.064 24.8399 271.245 25.0385C271.462 25.2763 271.656 25.4796 271.819 25.6371C271.188 20.2833 267.372 15.4656 258.741 7.93696Z" fill="#2F2E41"/>
<path d="M153.575 194.612L149.537 192.365L155.94 174.349L161.9 177.665L153.575 194.612Z" fill="#A0616A"/>
<path d="M137.281 194.395C137.032 194.904 136.982 195.499 137.143 196.048C137.305 196.596 137.664 197.054 138.142 197.321L146.171 201.788L149.049 199.513L148.094 202.856L151.122 204.544L155.608 193.208L154.585 192.556L150.42 189.886L149.075 189.027L147.564 192.103L138.836 193.248C138.509 193.291 138.197 193.418 137.926 193.617C137.655 193.817 137.434 194.084 137.281 194.395Z" fill="#28363E"/>
<path d="M149.438 128.288L146.501 124.58L158.841 110.489L163.176 115.962L149.438 128.288Z" fill="#A0616A"/>
<path d="M134.437 121.516C134.024 121.887 133.767 122.417 133.721 122.99C133.675 123.563 133.844 124.132 134.192 124.572L140.032 131.944L143.505 130.998L141.431 133.707L143.633 136.49L151.819 127.808L151.105 126.792L148.201 122.641L147.262 121.304L144.769 123.541L136.284 121.082C135.966 120.99 135.632 120.981 135.31 121.057C134.988 121.132 134.689 121.29 134.437 121.516Z" fill="#28363E"/>
<path d="M278.972 114.394C278.972 114.394 291.442 142.801 239.802 135.146C239.802 135.146 212.29 102.695 213.085 98.7904C213.085 98.7904 201.375 86.1266 201.948 85.896C202.521 85.6655 202.874 85.1647 201.927 85.2102C200.981 85.2557 200.981 83.7556 200.981 83.7556C200.981 83.7556 179.818 108.181 161.999 120.301L155.839 112.925C155.839 112.925 158.241 104.926 159.397 104.926C160.552 104.926 160.95 105.222 161.136 103.64C161.322 102.057 160.402 100.699 161.632 100.559C162.862 100.418 188.354 68.708 188.354 68.708C188.354 68.708 191.105 58.2635 199.508 60.2852C207.911 62.3068 251.577 100.091 251.577 100.091L278.972 114.394Z" fill="#28363E"/>
<path d="M257.944 136.067L189.722 135.464L160.074 185.46L151.696 180.739L153.553 179.905C153.553 179.905 152.991 172.956 153.68 171.197C154.368 169.438 156.418 169.967 156.418 169.967L173.703 127.541C174.895 123.775 177.237 120.542 180.356 118.357C183.474 116.172 187.19 115.16 190.912 115.483C205.215 113.263 228.432 115.037 252.553 117.216L257.944 136.067Z" fill="#28363E"/>
<path d="M218.446 50.9793C219.744 51.1911 220.914 51.9339 221.706 53.0496C222.497 54.1653 222.849 55.5658 222.686 56.9531C222.648 57.2346 222.589 57.5122 222.508 57.7833L236.526 69.1001L233.634 78.691L216.006 60.9787C214.975 60.5366 214.112 59.744 213.549 58.7245C212.987 57.7051 212.757 56.5162 212.897 55.3434C212.982 54.6768 213.19 54.0346 213.508 53.4535C213.826 52.8724 214.249 52.3638 214.752 51.9566C215.256 51.5494 215.829 51.2517 216.44 51.0804C217.052 50.9092 217.689 50.8677 218.315 50.9584C218.358 50.9647 218.402 50.9717 218.446 50.9793Z" fill="#A0616A"/>
<path d="M280.288 51.6858L275.247 66.5369L255.537 96.1819C255.537 96.1819 255.376 96.1081 255.083 95.977C253.389 95.1984 247.236 92.338 241.449 89.0882C236.016 86.0352 230.899 82.638 230.106 80.3021C230.021 80.0562 229.944 79.8186 229.875 79.5891V79.585C229.505 78.3955 229.274 77.1624 229.185 75.9132C229.12 74.9501 229.178 74.4338 229.054 74.3723C228.958 74.3272 228.758 74.5485 228.315 75.0485C228.284 75.0813 228.257 75.1141 228.227 75.1427C226.625 76.8516 224.657 76.6303 225.139 75.8189C225.631 74.987 225.373 75.0034 224.65 74.1346C224.111 73.4872 222.359 70.9546 221.496 69.7047C221.2 69.2744 221.011 68.9957 221.011 68.9957L221.307 68.4999L222.128 67.1311L226.028 60.6235L226.244 60.267C226.244 60.267 234.26 62.2381 235.327 64.1109C236.397 65.9837 233.713 65.9222 236.397 65.9837C239.081 66.0452 241.818 62.1603 239.859 66.0247C237.899 69.885 238.415 71.2332 240.84 70.6226C241.826 70.3727 243.386 71.1636 244.887 72.1881V72.1922C245.826 72.8415 246.732 73.5433 247.602 74.2944C248.53 75.0895 249.157 75.6918 249.157 75.6918L264.382 42.8177L266.068 39.1786C266.582 38.0713 267.298 37.0842 268.175 36.275C269.052 35.4658 270.071 34.8508 271.174 34.4659L271.701 35.4454C274.986 40.5934 277.858 46.026 280.288 51.6858Z" fill="#35A1B1"/>
<path d="M281.131 98.821C285.797 99.9766 280.833 136.131 275.27 136.244C234.841 137.064 247.151 112.922 244.983 110.611C242.816 108.296 240.86 109.955 242.816 106.353C244.24 103.73 246.354 104.12 246.385 102.649C246.4 102.099 246.127 101.296 245.418 99.9767C242.816 95.1246 242.816 93.678 242.816 93.678C242.167 92.221 241.707 90.677 241.449 89.0883C241.026 86.7259 240.974 84.3054 241.295 81.9249C241.784 78.4328 243.012 75.1047 244.887 72.1922V72.1881C245.083 71.8766 245.288 71.5611 245.503 71.2496C245.992 70.5407 248.703 70.6759 248.703 70.6759L254.478 44.8585L251.136 34.5643L266.965 26.6716L271.174 34.466L271.701 35.4454C274.985 40.5934 277.858 46.026 280.287 51.6858C282.625 57.2222 284.546 63.3692 284.615 68.7171C284.8 82.6626 282.54 86.8098 282.54 86.8098C282.54 86.8098 288.027 91.1741 285.281 93.8419C282.54 96.5138 276.464 97.6654 281.131 98.821Z" fill="#35A1B1"/>
<path d="M209.421 47.5827L206.839 49.6707C206.329 50.086 205.994 50.6994 205.908 51.3768C205.822 52.0541 205.992 52.7402 206.38 53.2846L212.6 61.9861L216.273 67.1198C216.662 67.662 217.238 68.0177 217.873 68.1091C218.509 68.2005 219.152 68.0201 219.663 67.6075L222.249 65.5169C222.757 65.1006 223.09 64.4875 223.175 63.8111C223.26 63.1348 223.091 62.4499 222.705 61.9057L222.323 61.3694L214.788 50.8326L212.811 48.0704C212.619 47.8014 212.379 47.5753 212.104 47.4052C211.83 47.2351 211.526 47.1242 211.211 47.0789C210.897 47.0336 210.576 47.0548 210.269 47.1413C209.962 47.2277 209.674 47.3777 209.421 47.5827Z" fill="#3F3D56"/>
<path d="M210.772 47.4249L207.99 49.4906C207.744 49.6614 207.536 49.8856 207.378 50.1484C207.22 50.4112 207.116 50.7067 207.073 51.0153C207.03 51.324 207.049 51.6388 207.129 51.9391C207.209 52.2393 207.348 52.5181 207.536 52.7572L211.178 57.4272L213.118 59.9151L214.413 61.5749L217.309 65.2881C217.718 65.7863 218.286 66.1068 218.903 66.1885C219.52 66.2701 220.144 66.1074 220.655 65.7311L222.74 64.1834L223.434 63.6684C223.779 63.423 224.049 63.0744 224.21 62.6663C224.37 62.2581 224.413 61.8087 224.334 61.3745C224.264 61.0137 224.111 60.6771 223.888 60.3952L215.332 49.4212L214.119 47.868C213.71 47.3691 213.142 47.0481 212.525 46.9664C211.907 46.8847 211.283 47.0479 210.772 47.4249Z" fill="#D8EFF3"/>
<path d="M212.55 58.959C213.848 59.1709 215.018 59.9137 215.81 61.0293C216.602 62.145 216.953 63.5455 216.79 64.9329C216.752 65.2143 216.693 65.492 216.613 65.763L230.631 77.0799L227.738 86.6708L210.11 68.9584C209.08 68.5163 208.216 67.7237 207.654 66.7043C207.091 65.6848 206.862 64.4959 207.001 63.3231C207.086 62.6565 207.294 62.0144 207.612 61.4333C207.931 60.8522 208.354 60.3435 208.857 59.9363C209.36 59.5291 209.933 59.2314 210.545 59.0602C211.156 58.8889 211.793 58.8474 212.419 58.9382C212.463 58.9445 212.506 58.9514 212.55 58.959Z" fill="#A0616A"/>
<path d="M269.722 42.1755C270.947 42.441 272.105 42.9843 273.115 43.7683C274.126 44.5524 274.966 45.5588 275.578 46.7192C276.19 47.8796 276.561 49.1667 276.664 50.4931C276.767 51.8194 276.6 53.1539 276.176 54.4057L269.353 74.5156L249.64 104.163C249.64 104.163 225.999 93.535 224.209 88.2817C222.419 83.0285 224.035 81.2158 222.419 83.0284C220.803 84.8411 218.753 84.6262 219.244 83.7967C219.734 82.9672 219.476 82.9849 218.754 82.1159C218.031 81.2469 215.116 76.9767 215.116 76.9767L220.348 68.2475C220.348 68.2475 228.365 70.2172 229.433 72.0911C230.501 73.9651 227.816 73.9038 230.501 73.9651C233.185 74.0263 235.924 70.14 233.963 74.0033C232.002 77.8666 232.519 79.2135 234.945 78.6013C237.371 77.9892 243.26 83.6723 243.26 83.6723L260.174 47.1592C261.025 45.3227 262.423 43.8377 264.15 42.9361C265.878 42.0345 267.837 41.767 269.722 42.1755Z" fill="#35A1B1"/>
<path d="M259.635 30.0703C264.535 24.8543 264.535 16.3976 259.635 11.1817C254.734 5.96577 246.788 5.96577 241.888 11.1817C236.987 16.3976 236.987 24.8543 241.888 30.0703C246.788 35.2862 254.734 35.2862 259.635 30.0703Z" fill="#A0616A"/>
<path d="M265.435 6.07557C264.501 -1.54663 247.982 -1.0604 246.422 6.11084C245.595 5.56007 243.49 5.9413 242.705 6.57437C241.92 7.20744 241.417 8.13811 240.924 9.04153C240.252 10.2963 235.546 14.5416 234.841 13.3039C233.255 10.5184 230.143 16.6051 232.531 20.6803C233.104 21.6574 244.171 20.0888 245.237 19.8607C244.707 19.996 245.982 19.7032 245.237 19.8607C245.409 18.9766 247.138 14.4088 246.729 13.6145C247.157 13.7051 247.562 13.8955 247.913 14.172C248.264 14.4486 248.554 14.8045 248.76 15.2142C248.844 15.3857 251.87 39.6323 251.87 39.6323C252.698 39.7384 253.533 39.7606 254.364 39.6985C254.88 36.7145 254.974 33.6652 254.642 30.6516C255.519 32.374 256.212 34.1951 256.71 36.0811C256.995 37.1359 257.229 38.2055 257.411 39.2858C264.614 37.8523 274.35 32.915 276.126 24.5315C266.414 21.0901 274.066 13.6042 265.435 6.07557Z" fill="#2F2E41"/>
<path d="M155.591 44.3779C155.752 43.2006 154.593 42.0465 153.003 41.8003C151.413 41.554 149.993 42.3088 149.832 43.4862C149.671 44.6635 150.83 45.8176 152.42 46.0638C154.01 46.3101 155.43 45.5553 155.591 44.3779Z" fill="#EBF0F2"/>
<path d="M174.524 42.4117C174.685 41.2343 173.526 40.0803 171.936 39.834C170.346 39.5878 168.926 40.3426 168.765 41.5199C168.604 42.6973 169.763 43.8514 171.353 44.0976C172.943 44.3438 174.363 43.589 174.524 42.4117Z" fill="#28363E"/>
<path d="M150.406 28.0645C150.567 26.8872 149.409 25.7331 147.818 25.4868C146.228 25.2406 144.809 25.9954 144.648 27.1728C144.487 28.3501 145.645 29.5042 147.235 29.7504C148.826 29.9967 150.245 29.2419 150.406 28.0645Z" fill="#D62B25"/>
<path d="M142.179 21.3823C142.187 20.3014 141.621 19.4206 140.914 19.4149C140.208 19.4092 139.629 20.2808 139.621 21.3617C139.613 22.4426 140.18 23.3234 140.886 23.3291C141.593 23.3348 142.172 22.4632 142.179 21.3823Z" fill="#EBF0F2"/>
<path d="M139.39 8.93601C139.397 7.85515 138.831 6.97433 138.124 6.96864C137.418 6.96296 136.839 7.83456 136.831 8.91542C136.824 9.99628 137.39 10.8771 138.097 10.8828C138.803 10.8885 139.382 10.0169 139.39 8.93601Z" fill="#28363E"/>
<path d="M161.085 30.8406C161.092 29.7598 160.526 28.8789 159.819 28.8732C159.113 28.8676 158.534 29.7392 158.526 30.82C158.519 31.9009 159.085 32.7817 159.792 32.7874C160.498 32.7931 161.077 31.9215 161.085 30.8406Z" fill="#EBF0F2"/>
<path d="M151.935 35.7025C151.943 34.6217 151.376 33.7408 150.67 33.7351C149.964 33.7295 149.385 34.6011 149.377 35.6819C149.369 36.7628 149.936 37.6436 150.642 37.6493C151.349 37.655 151.928 36.7834 151.935 35.7025Z" fill="#D62B25"/>
<path d="M164.671 44.6885C164.679 43.6077 164.113 42.7268 163.406 42.7211C162.7 42.7155 162.121 43.5871 162.113 44.6679C162.105 45.7488 162.672 46.6296 163.378 46.6353C164.085 46.641 164.664 45.7694 164.671 44.6885Z" fill="#28363E"/>
<path d="M208.379 56.1815C208.552 56.0499 208.441 55.57 208.132 55.1097C207.823 54.6494 207.432 54.383 207.259 54.5146C207.086 54.6462 207.197 55.1261 207.506 55.5864C207.815 56.0467 208.206 56.3131 208.379 56.1815Z" fill="#3F3D56"/>
<path d="M207.224 54.5423C207.397 54.4107 207.286 53.9308 206.977 53.4705C206.668 53.0102 206.277 52.7438 206.104 52.8754C205.931 53.007 206.041 53.4869 206.351 53.9472C206.66 54.4075 207.051 54.6739 207.224 54.5423Z" fill="#3F3D56"/>
</g>
<defs>
<clipPath id="clip0_8507_22672">
<rect width="326" height="204" fill="white" transform="translate(0 0.543945)"/>
</clipPath>
</defs>
</svg>
